<svg version="1.1" id="Layer_1" xmlns="http://www.w3.org/2000/svg" xmlns:xlink="http://www.w3.org/1999/xlink" x="0px" y="0px"
	 width="100%" viewBox="0 0 711 458" enable-background="new 0 0 711 458" xml:space="preserve">
<path fill="#FFFFFF" opacity="1.000000" stroke="none" 
	d="
M447.000000,459.000000 
	C298.000000,459.000000 149.500000,459.000000 1.000000,459.000000 
	C1.000000,306.333344 1.000000,153.666672 1.000000,1.000000 
	C238.000000,1.000000 475.000000,1.000000 712.000000,1.000000 
	C712.000000,153.666672 712.000000,306.333344 712.000000,459.000000 
	C623.833313,459.000000 535.666687,459.000000 447.000000,459.000000 
M315.940155,264.500000 
	C315.940155,205.776901 315.940155,147.053802 315.940155,88.449387 
	C212.870544,88.449387 110.686188,88.449387 8.490801,88.449387 
	C8.490801,190.773117 8.490801,292.648163 8.490801,394.691925 
	C111.040016,394.691925 213.223343,394.691925 315.940002,394.691925 
	C315.940002,351.385498 315.940002,308.442749 315.940155,264.500000 
M444.976410,394.320496 
	C465.943115,394.291870 486.909821,394.261047 507.876526,394.260681 
	C508.126099,394.260681 508.375702,394.653046 509.251740,395.387329 
	C509.251740,413.077271 509.251740,431.295624 509.251740,449.870117 
	C518.685181,449.870117 527.493896,449.830994 536.302002,449.892212 
	C539.231384,449.912567 539.940979,448.364868 539.933289,445.781921 
	C539.884033,429.123138 540.307495,412.450867 539.759216,395.809967 
	C539.401794,384.963379 534.792175,376.668427 520.791382,375.838318 
	C520.317566,375.810181 519.871460,375.313965 519.185608,374.898529 
	C545.553711,363.452301 544.292725,329.354156 528.201538,315.429260 
	C518.153320,306.733765 506.371765,303.408966 493.748047,303.182281 
	C468.601105,302.730682 443.440552,303.028442 418.285645,303.042297 
	C417.008209,303.042999 415.730896,303.284973 414.337769,303.426331 
	C414.337769,352.270233 414.337769,400.802551 414.337769,449.879333 
	C422.649841,449.879333 430.617706,449.635162 438.560394,449.976196 
	C442.918213,450.163300 444.257324,448.947784 444.205078,444.450500 
	C444.013641,427.970062 444.274170,411.484406 444.976410,394.320496 
M696.827209,118.113571 
	C695.100525,107.228653 688.877319,101.087761 677.736877,100.799080 
	C662.275146,100.398415 646.804504,100.283569 631.337463,100.267624 
	C630.263489,100.266510 628.298706,102.062225 628.256714,103.084366 
	C627.978516,109.852142 628.112793,116.636864 628.112793,124.028465 
	C641.265564,124.028465 653.828918,124.028465 666.253174,124.028465 
	C667.954773,132.921356 665.448059,140.499161 659.397034,145.742508 
	C645.989441,157.360443 619.538452,158.159409 605.112549,147.732864 
	C592.991577,138.972244 587.558716,126.695747 586.157898,112.450279 
	C585.039551,101.077728 585.975586,89.655296 591.492249,79.407188 
	C600.354858,62.943638 617.740784,54.470989 636.370850,57.152363 
	C649.737793,59.076218 660.441040,64.679016 664.307922,78.998528 
	C664.613220,80.129082 666.186951,81.711723 667.199890,81.733200 
	C676.962769,81.940178 686.731812,81.857254 697.013977,81.857254 
	C693.369019,60.255329 682.379333,45.035908 663.090576,36.234089 
	C647.953918,29.326963 631.937317,28.432549 615.720093,31.008247 
	C587.998352,35.411144 568.953857,50.731812 559.498901,77.251266 
	C554.679443,90.768723 553.956360,104.844391 556.019043,119.043266 
	C558.923828,139.039047 567.833313,155.646912 584.264404,167.693268 
	C595.413818,175.867386 608.128235,179.599289 621.980408,180.327835 
	C635.803284,181.054825 648.858765,179.444778 660.134888,170.771179 
	C663.144409,168.456253 665.451965,165.228790 668.909729,161.536118 
	C668.909729,166.545013 668.729431,170.492493 669.013855,174.406158 
	C669.105347,175.664627 670.390991,177.862061 671.183044,177.886032 
	C679.605225,178.140854 688.038025,178.044189 696.922913,178.044189 
	C696.922913,157.902756 696.922913,138.452072 696.827209,118.113571 
M598.944275,355.335754 
	C598.944275,338.068756 598.944275,320.801758 598.944275,303.390839 
	C588.327759,303.390839 578.439880,303.390839 568.457520,303.390839 
	C568.292053,304.367706 568.089844,305.004883 568.089539,305.642151 
	C568.069031,352.305969 568.086487,398.969818 568.012451,445.633545 
	C568.007141,448.984650 569.399780,449.976349 572.516479,449.917847 
	C579.347046,449.789551 586.192383,449.646118 593.010681,449.962128 
	C597.509521,450.170593 599.126404,448.866394 599.050964,444.102875 
	C598.778992,426.941559 598.936035,409.773254 598.956360,392.607605 
	C598.958435,390.852356 599.130066,389.097260 599.219971,387.400482 
	C623.375366,387.400482 646.938721,387.400482 671.149170,387.400482 
	C671.149170,408.343353 671.149170,428.896851 671.149170,449.517090 
	C681.376587,449.517090 690.948853,449.517090 700.677124,449.517090 
	C700.677124,400.607544 700.677124,352.061432 700.677124,303.333496 
	C690.717834,303.333496 681.142029,303.333496 670.810913,303.333496 
	C670.810913,322.328522 670.810913,341.026703 670.810913,360.047974 
	C647.404297,360.047974 624.753174,360.018219 602.102295,360.085114 
	C599.224670,360.093597 598.776917,358.568115 598.944275,355.335754 
M489.543976,119.926476 
	C491.952393,120.549187 494.402649,121.044205 496.761719,121.817467 
	C505.435791,124.660660 510.142517,130.458908 509.954681,137.901566 
	C509.747955,146.092407 504.698853,151.741913 495.581604,154.096329 
	C486.566620,156.424316 477.500305,156.438065 468.430115,154.636230 
	C458.626038,152.688629 449.880066,148.465973 446.986725,138.268616 
	C445.238892,132.108307 442.040070,131.622971 437.008545,131.875977 
	C431.356812,132.160187 425.679749,131.941330 420.013702,131.941330 
	C418.105103,131.941330 416.196533,131.941330 413.872986,131.941330 
	C414.104858,134.485168 414.135437,136.135406 414.419861,137.740662 
	C417.723328,156.381790 429.077667,168.296524 446.268066,174.897018 
	C459.456116,179.960754 473.166901,181.341919 487.330658,180.245728 
	C498.782135,179.359436 509.754974,177.416412 519.746033,171.585571 
	C534.889832,162.747482 540.740723,148.893692 539.849854,132.045441 
	C539.013062,116.220024 531.513428,104.129822 516.286621,98.799751 
	C504.289856,94.600327 491.678009,92.145607 479.316528,89.005714 
	C472.891327,87.373657 466.241791,86.441193 460.008850,84.282425 
	C452.239166,81.591415 449.616272,76.969810 449.891754,69.041107 
	C450.114319,62.635494 453.655701,58.197483 460.914490,55.913620 
	C470.871704,52.780720 480.933350,52.877563 490.826355,56.149647 
	C497.113831,58.229218 502.477295,62.523445 504.450256,68.546249 
	C506.730042,75.505638 510.647644,76.588203 516.912781,76.053215 
	C522.868713,75.544624 528.902344,75.969162 534.901306,75.922195 
	C536.140442,75.912491 537.377441,75.632843 538.805542,75.453766 
	C536.677612,57.253220 527.948730,44.151741 511.519623,36.790077 
	C490.315979,27.289015 468.463379,27.244980 446.890198,34.844193 
	C428.046906,41.481789 416.461700,57.154648 420.107086,80.914360 
	C422.457306,96.232422 432.612152,105.499496 446.638275,109.788254 
	C460.398376,113.995659 474.674408,116.515778 489.543976,119.926476 
z"/>
<path fill="#BCF0AE" opacity="1.000000" stroke="none" 
	d="
M315.940063,265.000000 
	C315.940002,308.442749 315.940002,351.385498 315.940002,394.691925 
	C213.223343,394.691925 111.040016,394.691925 8.490801,394.691925 
	C8.490801,292.648163 8.490801,190.773117 8.490801,88.449387 
	C110.686188,88.449387 212.870544,88.449387 315.940155,88.449387 
	C315.940155,147.053802 315.940155,205.776901 315.940063,265.000000 
M88.702721,224.789581 
	C101.801056,230.533722 114.899391,236.277878 128.872635,242.405716 
	C105.448059,252.810745 83.119850,262.738464 60.782192,272.644867 
	C54.511864,275.425659 52.471107,278.398834 55.273521,284.244507 
	C59.341820,292.730743 64.160263,300.951141 69.512329,308.695038 
	C73.063354,313.833038 76.841515,313.697571 81.936882,309.984314 
	C97.410118,298.708099 112.858833,287.398193 128.323776,276.110565 
	C132.682770,272.928986 137.064758,269.778931 141.841034,266.321350 
	C141.841034,268.553558 141.964096,269.890167 141.822754,271.198151 
	C139.336288,294.209686 136.822861,317.218292 134.302460,340.226135 
	C133.578705,346.833038 135.008347,349.870239 141.424744,350.344513 
	C151.151505,351.063446 161.020691,351.025299 170.741669,350.232971 
	C177.003662,349.722534 178.268402,346.782593 177.570236,340.429352 
	C175.060013,317.586273 172.600464,294.737640 170.159363,271.887085 
	C169.993393,270.333496 170.137695,268.746765 170.137695,266.504120 
	C171.704254,267.580841 172.778015,268.283447 173.814926,269.036774 
	C192.671722,282.736359 211.513611,296.456390 230.384506,310.136475 
	C235.230743,313.649658 238.698700,313.902191 241.995361,309.080933 
	C247.581741,300.911011 252.563217,292.234039 256.877991,283.324158 
	C259.347961,278.223663 257.414001,275.281250 252.296600,273.000000 
	C240.297638,267.651031 228.272034,262.361816 216.261597,257.038544 
	C205.563721,252.297043 194.871689,247.542282 183.486023,242.486481 
	C185.760391,241.388535 187.224655,240.625839 188.732513,239.962204 
	C209.581665,230.785767 230.436783,221.622910 251.290497,212.456879 
	C257.507935,209.724045 259.534576,206.316940 256.592438,200.302185 
	C252.596802,192.133759 247.908051,184.218826 242.721573,176.747009 
	C238.931686,171.287155 235.331833,171.338669 229.928558,175.246597 
	C218.056290,183.833191 206.207550,192.452332 194.329941,201.031525 
	C186.428146,206.738998 178.493042,212.400406 169.882843,218.577454 
	C170.009430,215.834427 169.996582,214.048264 170.187729,212.284180 
	C172.645370,189.602814 175.123825,166.923691 177.617020,144.246201 
	C178.289520,138.129196 176.707169,134.919235 170.604187,134.473099 
	C160.869446,133.761490 151.006271,133.753372 141.272263,134.467834 
	C135.121429,134.919312 133.564774,138.031067 134.240173,144.247803 
	C136.416519,164.279663 138.615173,184.309128 140.778122,204.342422 
	C141.259781,208.803467 141.630692,213.276474 142.133209,218.597687 
	C139.967117,217.092865 138.740646,216.273148 137.547699,215.407242 
	C119.088341,202.008102 100.638649,188.595688 82.173897,175.204025 
	C77.060654,171.495605 73.117889,171.265411 69.644493,176.265457 
	C64.187698,184.120682 59.315262,192.485504 55.150227,201.096375 
	C52.562531,206.446243 54.691296,209.698334 60.197201,212.138824 
	C69.470352,216.249115 78.749832,220.345108 88.702721,224.789581 
z"/>
<path fill="#BDF0AF" opacity="1.000000" stroke="none" 
	d="
M444.670471,394.660583 
	C444.274170,411.484406 444.013641,427.970062 444.205078,444.450500 
	C444.257324,448.947784 442.918213,450.163300 438.560394,449.976196 
	C430.617706,449.635162 422.649841,449.879333 414.337769,449.879333 
	C414.337769,400.802551 414.337769,352.270233 414.337769,303.426331 
	C415.730896,303.284973 417.008209,303.042999 418.285645,303.042297 
	C443.440552,303.028442 468.601105,302.730682 493.748047,303.182281 
	C506.371765,303.408966 518.153320,306.733765 528.201538,315.429260 
	C544.292725,329.354156 545.553711,363.452301 519.185608,374.898529 
	C519.871460,375.313965 520.317566,375.810181 520.791382,375.838318 
	C534.792175,376.668427 539.401794,384.963379 539.759216,395.809967 
	C540.307495,412.450867 539.884033,429.123138 539.933289,445.781921 
	C539.940979,448.364868 539.231384,449.912567 536.302002,449.892212 
	C527.493896,449.830994 518.685181,449.870117 509.251740,449.870117 
	C509.251740,431.295624 509.251740,413.077271 509.251740,395.387329 
	C508.375702,394.653046 508.126099,394.260681 507.876526,394.260681 
	C486.909821,394.261047 465.943115,394.291870 444.670471,394.660583 
M491.150055,367.031860 
	C503.369141,365.844604 509.273712,359.299255 509.095886,347.138550 
	C508.953491,337.404022 502.317169,330.349304 492.019592,330.083679 
	C477.216003,329.701782 462.395874,329.997925 447.584045,329.866577 
	C444.530365,329.839508 444.030884,331.295013 444.058777,333.860443 
	C444.149323,342.181396 444.091888,350.503967 444.091492,358.825897 
	C444.091400,361.419312 444.091461,364.012695 444.091461,367.043579 
	C459.990448,367.043579 475.106781,367.043579 491.150055,367.031860 
z"/>
<path fill="#BDF0AF" opacity="1.000000" stroke="none" 
	d="
M696.875061,118.557480 
	C696.922913,138.452072 696.922913,157.902756 696.922913,178.044189 
	C688.038025,178.044189 679.605225,178.140854 671.183044,177.886032 
	C670.390991,177.862061 669.105347,175.664627 669.013855,174.406158 
	C668.729431,170.492493 668.909729,166.545013 668.909729,161.536118 
	C665.451965,165.228790 663.144409,168.456253 660.134888,170.771179 
	C648.858765,179.444778 635.803284,181.054825 621.980408,180.327835 
	C608.128235,179.599289 595.413818,175.867386 584.264404,167.693268 
	C567.833313,155.646912 558.923828,139.039047 556.019043,119.043266 
	C553.956360,104.844391 554.679443,90.768723 559.498901,77.251266 
	C568.953857,50.731812 587.998352,35.411144 615.720093,31.008247 
	C631.937317,28.432549 647.953918,29.326963 663.090576,36.234089 
	C682.379333,45.035908 693.369019,60.255329 697.013977,81.857254 
	C686.731812,81.857254 676.962769,81.940178 667.199890,81.733200 
	C666.186951,81.711723 664.613220,80.129082 664.307922,78.998528 
	C660.441040,64.679016 649.737793,59.076218 636.370850,57.152363 
	C617.740784,54.470989 600.354858,62.943638 591.492249,79.407188 
	C585.975586,89.655296 585.039551,101.077728 586.157898,112.450279 
	C587.558716,126.695747 592.991577,138.972244 605.112549,147.732864 
	C619.538452,158.159409 645.989441,157.360443 659.397034,145.742508 
	C665.448059,140.499161 667.954773,132.921356 666.253174,124.028465 
	C653.828918,124.028465 641.265564,124.028465 628.112793,124.028465 
	C628.112793,116.636864 627.978516,109.852142 628.256714,103.084366 
	C628.298706,102.062225 630.263489,100.266510 631.337463,100.267624 
	C646.804504,100.283569 662.275146,100.398415 677.736877,100.799080 
	C688.877319,101.087761 695.100525,107.228653 696.875061,118.557480 
z"/>
<path fill="#BDF0AF" opacity="1.000000" stroke="none" 
	d="
M598.944946,355.812866 
	C598.776917,358.568115 599.224670,360.093597 602.102295,360.085114 
	C624.753174,360.018219 647.404297,360.047974 670.810913,360.047974 
	C670.810913,341.026703 670.810913,322.328522 670.810913,303.333496 
	C681.142029,303.333496 690.717834,303.333496 700.677124,303.333496 
	C700.677124,352.061432 700.677124,400.607544 700.677124,449.517090 
	C690.948853,449.517090 681.376587,449.517090 671.149170,449.517090 
	C671.149170,428.896851 671.149170,408.343353 671.149170,387.400482 
	C646.938721,387.400482 623.375366,387.400482 599.219971,387.400482 
	C599.130066,389.097260 598.958435,390.852356 598.956360,392.607605 
	C598.936035,409.773254 598.778992,426.941559 599.050964,444.102875 
	C599.126404,448.866394 597.509521,450.170593 593.010681,449.962128 
	C586.192383,449.646118 579.347046,449.789551 572.516479,449.917847 
	C569.399780,449.976349 568.007141,448.984650 568.012451,445.633545 
	C568.086487,398.969818 568.069031,352.305969 568.089539,305.642151 
	C568.089844,305.004883 568.292053,304.367706 568.457520,303.390839 
	C578.439880,303.390839 588.327759,303.390839 598.944275,303.390839 
	C598.944275,320.801758 598.944275,338.068756 598.944946,355.812866 
z"/>
<path fill="#BDF0AF" opacity="1.000000" stroke="none" 
	d="
M489.133972,119.851440 
	C474.674408,116.515778 460.398376,113.995659 446.638275,109.788254 
	C432.612152,105.499496 422.457306,96.232422 420.107086,80.914360 
	C416.461700,57.154648 428.046906,41.481789 446.890198,34.844193 
	C468.463379,27.244980 490.315979,27.289015 511.519623,36.790077 
	C527.948730,44.151741 536.677612,57.253220 538.805542,75.453766 
	C537.377441,75.632843 536.140442,75.912491 534.901306,75.922195 
	C528.902344,75.969162 522.868713,75.544624 516.912781,76.053215 
	C510.647644,76.588203 506.730042,75.505638 504.450256,68.546249 
	C502.477295,62.523445 497.113831,58.229218 490.826355,56.149647 
	C480.933350,52.877563 470.871704,52.780720 460.914490,55.913620 
	C453.655701,58.197483 450.114319,62.635494 449.891754,69.041107 
	C449.616272,76.969810 452.239166,81.591415 460.008850,84.282425 
	C466.241791,86.441193 472.891327,87.373657 479.316528,89.005714 
	C491.678009,92.145607 504.289856,94.600327 516.286621,98.799751 
	C531.513428,104.129822 539.013062,116.220024 539.849854,132.045441 
	C540.740723,148.893692 534.889832,162.747482 519.746033,171.585571 
	C509.754974,177.416412 498.782135,179.359436 487.330658,180.245728 
	C473.166901,181.341919 459.456116,179.960754 446.268066,174.897018 
	C429.077667,168.296524 417.723328,156.381790 414.419861,137.740662 
	C414.135437,136.135406 414.104858,134.485168 413.872986,131.941330 
	C416.196533,131.941330 418.105103,131.941330 420.013702,131.941330 
	C425.679749,131.941330 431.356812,132.160187 437.008545,131.875977 
	C442.040070,131.622971 445.238892,132.108307 446.986725,138.268616 
	C449.880066,148.465973 458.626038,152.688629 468.430115,154.636230 
	C477.500305,156.438065 486.566620,156.424316 495.581604,154.096329 
	C504.698853,151.741913 509.747955,146.092407 509.954681,137.901566 
	C510.142517,130.458908 505.435791,124.660660 496.761719,121.817467 
	C494.402649,121.044205 491.952393,120.549187 489.133972,119.851440 
z"/>
<path fill="#020302" opacity="1.000000" stroke="none" 
	d="
M88.364685,224.618347 
	C78.749832,220.345108 69.470352,216.249115 60.197201,212.138824 
	C54.691296,209.698334 52.562531,206.446243 55.150227,201.096375 
	C59.315262,192.485504 64.187698,184.120682 69.644493,176.265457 
	C73.117889,171.265411 77.060654,171.495605 82.173897,175.204025 
	C100.638649,188.595688 119.088341,202.008102 137.547699,215.407242 
	C138.740646,216.273148 139.967117,217.092865 142.133209,218.597687 
	C141.630692,213.276474 141.259781,208.803467 140.778122,204.342422 
	C138.615173,184.309128 136.416519,164.279663 134.240173,144.247803 
	C133.564774,138.031067 135.121429,134.919312 141.272263,134.467834 
	C151.006271,133.753372 160.869446,133.761490 170.604187,134.473099 
	C176.707169,134.919235 178.289520,138.129196 177.617020,144.246201 
	C175.123825,166.923691 172.645370,189.602814 170.187729,212.284180 
	C169.996582,214.048264 170.009430,215.834427 169.882843,218.577454 
	C178.493042,212.400406 186.428146,206.738998 194.329941,201.031525 
	C206.207550,192.452332 218.056290,183.833191 229.928558,175.246597 
	C235.331833,171.338669 238.931686,171.287155 242.721573,176.747009 
	C247.908051,184.218826 252.596802,192.133759 256.592438,200.302185 
	C259.534576,206.316940 257.507935,209.724045 251.290497,212.456879 
	C230.436783,221.622910 209.581665,230.785767 188.732513,239.962204 
	C187.224655,240.625839 185.760391,241.388535 183.486023,242.486481 
	C194.871689,247.542282 205.563721,252.297043 216.261597,257.038544 
	C228.272034,262.361816 240.297638,267.651031 252.296600,273.000000 
	C257.414001,275.281250 259.347961,278.223663 256.877991,283.324158 
	C252.563217,292.234039 247.581741,300.911011 241.995361,309.080933 
	C238.698700,313.902191 235.230743,313.649658 230.384506,310.136475 
	C211.513611,296.456390 192.671722,282.736359 173.814926,269.036774 
	C172.778015,268.283447 171.704254,267.580841 170.137695,266.504120 
	C170.137695,268.746765 169.993393,270.333496 170.159363,271.887085 
	C172.600464,294.737640 175.060013,317.586273 177.570236,340.429352 
	C178.268402,346.782593 177.003662,349.722534 170.741669,350.232971 
	C161.020691,351.025299 151.151505,351.063446 141.424744,350.344513 
	C135.008347,349.870239 133.578705,346.833038 134.302460,340.226135 
	C136.822861,317.218292 139.336288,294.209686 141.822754,271.198151 
	C141.964096,269.890167 141.841034,268.553558 141.841034,266.321350 
	C137.064758,269.778931 132.682770,272.928986 128.323776,276.110565 
	C112.858833,287.398193 97.410118,298.708099 81.936882,309.984314 
	C76.841515,313.697571 73.063354,313.833038 69.512329,308.695038 
	C64.160263,300.951141 59.341820,292.730743 55.273521,284.244507 
	C52.471107,278.398834 54.511864,275.425659 60.782192,272.644867 
	C83.119850,262.738464 105.448059,252.810745 128.872635,242.405716 
	C114.899391,236.277878 101.801056,230.533722 88.364685,224.618347 
z"/>
<path fill="#FEFFFE" opacity="1.000000" stroke="none" 
	d="
M490.686584,367.037720 
	C475.106781,367.043579 459.990448,367.043579 444.091461,367.043579 
	C444.091461,364.012695 444.091400,361.419312 444.091492,358.825897 
	C444.091888,350.503967 444.149323,342.181396 444.058777,333.860443 
	C444.030884,331.295013 444.530365,329.839508 447.584045,329.866577 
	C462.395874,329.997925 477.216003,329.701782 492.019592,330.083679 
	C502.317169,330.349304 508.953491,337.404022 509.095886,347.138550 
	C509.273712,359.299255 503.369141,365.844604 490.686584,367.037720 
z"/>
</svg>